<svg version="1.1" id="Layer_1" xmlns="http://www.w3.org/2000/svg" xmlns:xlink="http://www.w3.org/1999/xlink" x="0px" y="0px"
	 width="100%" viewBox="0 0 496 192" enable-background="new 0 0 496 192" xml:space="preserve">
<path fill="#000000" opacity="1.000000" stroke="none" 
	d="
M294.469604,104.273666 
	C291.849762,89.631943 303.738861,77.532562 315.413300,77.511375 
	C324.818604,77.494316 332.916595,79.213158 338.113708,87.795296 
	C342.868652,95.647217 342.954681,104.101128 339.174561,112.043396 
	C335.269379,120.248390 328.265228,123.990074 318.768250,124.550323 
	C304.319397,125.402664 294.816437,113.949768 294.469604,104.273666 
M303.590729,102.162888 
	C303.879730,103.281265 304.140137,104.407967 304.462555,105.516632 
	C306.190887,111.460014 312.215668,116.180855 318.012421,116.151932 
	C324.110138,116.121506 329.879547,111.238731 331.359100,104.856316 
	C332.739044,98.903587 330.622070,92.183113 326.422516,89.184631 
	C320.724823,85.116463 315.372314,84.822929 309.959229,88.501152 
	C305.454712,91.561989 304.268463,96.408028 303.590729,102.162888 
z"/>
<path fill="#000000" opacity="1.000000" stroke="none" 
	d="
M431.000793,124.368393 
	C416.250122,125.256462 406.868103,113.867180 406.895569,100.602562 
	C406.923676,87.005547 417.733551,77.098877 431.768555,77.308311 
	C443.486237,77.483170 454.448334,88.150475 454.694061,100.374466 
	C454.978821,114.537712 442.752686,125.983063 431.000793,124.368393 
M443.126556,108.435104 
	C443.553162,107.183907 444.175507,105.963219 444.375977,104.676788 
	C446.294586,92.365395 439.058960,86.157372 430.131226,85.778770 
	C423.427765,85.494492 417.684082,92.234245 416.593079,100.055412 
	C415.835052,105.489151 420.425812,112.685753 426.080109,114.927673 
	C432.349487,117.413475 438.549469,115.211174 443.126556,108.435104 
z"/>
<path fill="#000000" opacity="1.000000" stroke="none" 
	d="
M382.891907,114.936028 
	C387.118378,113.589668 387.076996,110.501221 386.475128,107.485168 
	C385.852936,104.367218 383.065186,105.447548 381.101440,105.419762 
	C378.036255,105.376396 375.361511,105.375366 375.669006,101.063553 
	C375.829529,98.812859 376.574707,97.669724 378.912354,97.689743 
	C383.239624,97.726822 387.568176,97.739311 391.894867,97.674820 
	C394.513245,97.635796 395.385498,98.976761 395.337036,101.396034 
	C395.273712,104.557304 394.964417,107.776772 395.425232,110.872314 
	C396.397156,117.400795 393.292725,120.837280 387.494263,122.668633 
	C369.477173,128.359039 353.832397,121.158089 352.938477,100.921555 
	C352.328156,87.105064 363.835663,77.025887 375.516266,77.523979 
	C381.109039,77.762474 386.434235,78.151169 391.270538,81.168015 
	C392.751892,82.092072 395.320129,83.049278 393.474487,85.121445 
	C391.661285,87.157227 390.465668,91.573189 386.285431,89.311829 
	C382.750305,87.399452 379.276306,85.339622 375.174316,85.990898 
	C367.439972,87.218857 361.424652,95.423904 362.773315,102.497391 
	C364.366699,110.854431 369.702393,117.765259 379.616180,115.636673 
	C380.584503,115.428764 381.565796,115.281067 382.891907,114.936028 
z"/>
<path fill="#000000" opacity="1.000000" stroke="none" 
	d="
M154.823242,85.760834 
	C152.521301,86.961548 149.548141,87.311684 149.979065,90.391251 
	C150.362350,93.130188 152.630707,94.376968 155.186295,95.142677 
	C159.147430,96.329483 163.186752,97.379257 166.971634,99.002953 
	C173.557251,101.828148 175.373001,105.890633 174.300766,114.025177 
	C173.729538,118.358772 168.813202,123.613129 163.771927,124.124138 
	C154.719284,125.041779 145.795532,124.699158 138.847534,117.206131 
	C139.297287,114.193001 142.423721,113.374542 143.329437,110.721008 
	C147.555359,112.534744 150.864777,115.145798 154.963608,116.074715 
	C156.451935,116.412025 157.903946,116.863678 159.357468,116.455132 
	C161.954010,115.725304 164.814285,114.804871 165.182190,111.724350 
	C165.555252,108.600586 162.684738,107.635307 160.402954,106.796951 
	C156.836960,105.486755 153.111053,104.618576 149.512329,103.389175 
	C142.511826,100.997643 139.573517,95.808662 140.743256,88.173904 
	C141.634338,82.357811 147.115784,77.806023 153.458038,77.660774 
	C159.110367,77.531334 164.804214,77.224991 169.854736,80.535507 
	C171.753159,81.779869 174.344437,82.668327 172.275421,85.806953 
	C170.615005,88.325798 169.445679,91.203056 165.438538,88.660789 
	C162.400513,86.733360 159.012802,85.197624 154.823242,85.760834 
z"/>
<path fill="#000000" opacity="1.000000" stroke="none" 
	d="
M125.818848,123.337326 
	C117.184196,123.355850 109.029213,123.225761 100.882301,123.425293 
	C97.126282,123.517273 95.510712,122.435944 95.582870,118.383896 
	C95.790184,106.742302 95.723183,95.094002 95.612907,83.449768 
	C95.582413,80.229996 96.354622,78.523399 100.032173,78.605934 
	C108.346046,78.792542 116.667191,78.708328 124.984741,78.647141 
	C127.710289,78.627090 129.356567,79.267288 129.367661,82.509026 
	C129.378708,85.735817 127.795540,86.433395 125.033386,86.390633 
	C119.544876,86.305656 114.047424,86.540260 108.566322,86.323242 
	C104.708260,86.170486 104.258888,88.228867 104.286446,91.311935 
	C104.314247,94.422546 104.365494,96.950211 108.656670,96.705772 
	C113.133446,96.450745 117.638657,96.743462 122.127838,96.640152 
	C124.968666,96.574783 126.388077,97.440628 126.373566,100.603111 
	C126.358444,103.896545 124.637383,104.440247 121.947121,104.389282 
	C117.623398,104.307365 113.279900,104.616631 108.976112,104.314270 
	C104.489044,103.999046 104.214661,106.511955 104.294159,109.899857 
	C104.368271,113.058746 104.058037,115.932053 108.763451,115.690697 
	C114.238144,115.409882 119.739998,115.620934 125.229301,115.684410 
	C127.032059,115.705254 129.138199,115.535019 129.209000,118.246933 
	C129.267502,120.487610 130.005005,123.202232 125.818848,123.337326 
z"/>
<path fill="#000000" opacity="1.000000" stroke="none" 
	d="
M69.350006,102.007767 
	C69.346153,107.823654 69.257401,113.142807 69.370445,118.457657 
	C69.435814,121.531013 68.925476,123.471863 65.092796,123.436935 
	C61.494720,123.404144 60.564987,121.916519 60.615765,118.624947 
	C60.754154,109.654076 60.482399,100.674538 60.737919,91.708832 
	C60.857941,87.497368 59.284008,85.949005 55.241173,86.346931 
	C53.597240,86.508736 51.918831,86.280655 50.260265,86.342133 
	C47.333778,86.450607 46.647507,84.829659 46.659531,82.251526 
	C46.671364,79.714600 47.710732,78.656174 50.228558,78.667732 
	C60.031975,78.712761 69.836121,78.730812 79.639122,78.651367 
	C82.492950,78.628235 83.351486,79.928314 83.360474,82.602592 
	C83.369995,85.436157 82.094398,86.241501 79.445351,86.404663 
	C69.345940,87.026726 69.350525,87.101585 69.349648,97.521225 
	C69.349533,98.850563 69.349716,100.179893 69.350006,102.007767 
z"/>
<path fill="#000000" opacity="1.000000" stroke="none" 
	d="
M188.934906,86.370041 
	C185.752075,86.231308 182.496002,87.047638 182.658112,82.444710 
	C182.741806,80.068306 183.364578,78.665970 186.028824,78.677498 
	C196.002136,78.720604 205.975906,78.722336 215.949173,78.672279 
	C218.606705,78.658936 219.353348,80.027122 219.334686,82.418434 
	C219.316986,84.686012 218.878860,86.176826 216.126953,86.382599 
	C212.732315,86.636414 208.353210,84.735283 206.172455,87.645752 
	C203.931580,90.636444 205.467697,95.053833 205.388107,98.838737 
	C205.244843,105.651329 205.257721,112.470108 205.366272,119.283737 
	C205.413757,122.264252 204.276840,123.437569 201.261017,123.393188 
	C198.337311,123.350159 196.558945,122.791061 196.622238,119.280937 
	C196.775040,110.806007 196.661148,102.326317 196.658066,93.848541 
	C196.655365,86.431953 196.657349,86.431953 188.934906,86.370041 
z"/>
<path fill="#000000" opacity="1.000000" stroke="none" 
	d="
M255.661133,118.856392 
	C255.655823,106.733009 255.720673,95.093704 255.619171,83.455856 
	C255.591309,80.261948 256.316956,78.573418 260.022430,78.578819 
	C263.770935,78.584282 264.420532,80.375664 264.375793,83.517799 
	C264.264587,91.330772 264.320526,99.146545 264.352020,106.961029 
	C264.391113,116.663322 263.311279,115.568855 273.277588,115.645569 
	C276.768921,115.672440 280.262665,115.754639 283.751251,115.660378 
	C286.708954,115.580475 287.357056,117.164742 287.337677,119.735802 
	C287.318848,122.233887 286.380676,123.365784 283.808319,123.345215 
	C275.661865,123.280090 267.514038,123.270370 259.367828,123.348656 
	C256.491394,123.376289 255.525299,121.946793 255.661133,118.856392 
z"/>
</svg>